<svg id="Group_4" data-name="Group 4" xmlns="http://www.w3.org/2000/svg" width="56" height="56" viewBox="0 0 56 56">
  <defs>
    <style>
      .cls-1 {
        fill: #03a9f4;
      }

      .cls-2 {
        fill: #fff;
      }
    </style>
  </defs>
  <circle id="Oval_Copy_4" data-name="Oval Copy 4" class="cls-1" cx="28" cy="28" r="28"/>
  <g id="twitter" transform="translate(15 17)">
    <path id="Path" class="cls-2" d="M26.845,2.686a.591.591,0,0,0-.7-.123,5.042,5.042,0,0,1-.75.269,5.221,5.221,0,0,0,.892-1.7.581.581,0,0,0-.417-.712A.591.591,0,0,0,25.379.5a12.4,12.4,0,0,1-2.824,1.1,5.946,5.946,0,0,0-7.4-.567,5.757,5.757,0,0,0-2.536,5.336,13.934,13.934,0,0,1-9.734-5.2.609.609,0,0,0-.5-.218.588.588,0,0,0-.47.284,5.591,5.591,0,0,0-.648,4.373,6.2,6.2,0,0,0,1.02,2.115,3.12,3.12,0,0,1-.6-.378.59.59,0,0,0-.826.085A.579.579,0,0,0,.733,7.8,6.011,6.011,0,0,0,3.86,12.964,4.386,4.386,0,0,1,3.1,12.8a.588.588,0,0,0-.731.39A.578.578,0,0,0,2.4,13.6a6.394,6.394,0,0,0,4.447,3.608A10.417,10.417,0,0,1,.654,18.471.581.581,0,0,0,.3,19.556,17.7,17.7,0,0,0,8.974,22a14.991,14.991,0,0,0,8.234-2.5c4.652-3.061,7.552-8.557,7.148-13.474a10.913,10.913,0,0,0,2.552-2.637A.578.578,0,0,0,26.845,2.686Z"/>
  </g>
</svg>
