<svg id="Group_5" data-name="Group 5" xmlns="http://www.w3.org/2000/svg" width="56" height="56" viewBox="0 0 56 56">
  <defs>
    <style>
      .cls-1 {
        fill: #f61c0d;
      }

      .cls-2 {
        fill: #fff;
      }
    </style>
  </defs>
  <path id="Oval_Copy_3" data-name="Oval Copy 3" class="cls-1" d="M28,0A28,28,0,1,1,0,28,28,28,0,0,1,28,0Z"/>
  <g id="youtube" transform="translate(16 14)">
    <path id="Shape" class="cls-2" d="M12.828,17.072H11.663a77.523,77.523,0,0,1-8.589-.34A3.1,3.1,0,0,1,.427,14.326,26.128,26.128,0,0,1,0,8.536,26.369,26.369,0,0,1,.432,2.746,3.1,3.1,0,0,1,3.078.339,77.532,77.532,0,0,1,11.668,0h1.165a77.509,77.509,0,0,1,8.589.34,3.1,3.1,0,0,1,2.648,2.407,25.915,25.915,0,0,1,.424,5.731v.06a26.447,26.447,0,0,1-.429,5.79,3.1,3.1,0,0,1-2.647,2.407A77.531,77.531,0,0,1,12.828,17.072ZM20.465,5.336a2.115,2.115,0,0,0-1.773.838A3.172,3.172,0,0,0,18.235,8.1v2.861a3.169,3.169,0,0,0,.475,1.922,2.112,2.112,0,0,0,1.791.836,2.049,2.049,0,0,0,1.791-.886,2.116,2.116,0,0,0,.346-.887c.015-.167.031-.506.031-.954v-.216h-1.51a9.46,9.46,0,0,1-.033,1,.637.637,0,0,1-.662.594c-.509,0-.756-.371-.756-1.134V9.789h2.961V8.1a3.189,3.189,0,0,0-.458-1.924A2.056,2.056,0,0,0,20.465,5.336Zm-6.244,7.477,0,0a2,2,0,0,0,1.527.9,1.173,1.173,0,0,0,1.183-.918,6.561,6.561,0,0,0,.15-1.646V7.9a6.223,6.223,0,0,0-.15-1.642,1.172,1.172,0,0,0-1.183-.922,2.015,2.015,0,0,0-1.529.886V2.641H12.74V13.6h1.48v-.791ZM7.2,5.435V11.9a4.187,4.187,0,0,0,.131,1.214.907.907,0,0,0,.953.608,2.364,2.364,0,0,0,1.692-1V13.6h1.481V5.435H9.977v6.243c-.33.467-.636.693-.935.693-.2,0-.311-.113-.347-.346a4.549,4.549,0,0,1-.014-.576V5.435ZM1.827,2.641V4.184h1.74V13.6H5.214V4.184H6.987V2.641Z" transform="translate(0.021 11.944)"/>
    <path id="Path" class="cls-2" d="M.743,0Q0,0,0,1.133v.756H1.48V1.133C1.48.378,1.232,0,.743,0Z" transform="translate(19.73 18.612)"/>
    <path id="Path-2" data-name="Path" class="cls-2" d="M.738,0A1.06,1.06,0,0,0,0,.36V5.339A1.056,1.056,0,0,0,.738,5.7c.427,0,.644-.365.644-1.1V1.115C1.382.378,1.165,0,.738,0Z" transform="translate(14.242 18.612)"/>
    <path id="Path-3" data-name="Path" class="cls-2" d="M1.1,8.369A2.4,2.4,0,0,0,2.805,7.355v.9H4.3V0h-1.5V6.31c-.332.468-.646.7-.945.7-.2,0-.318-.118-.351-.35a3.469,3.469,0,0,1-.018-.581V0H0V6.528A4.171,4.171,0,0,0,.132,7.756.919.919,0,0,0,1.1,8.369Z" transform="translate(14.71 2.822)"/>
    <path id="Path-4" data-name="Path" class="cls-2" d="M2.078,6.591v4.487H3.737V6.591L5.732,0H4.055L2.923,4.35,1.746,0H0C.35,1.027.714,2.059,1.063,3.087A27.289,27.289,0,0,1,2.078,6.591Z" transform="translate(3.314)"/>
    <path id="Shape-2" data-name="Shape" class="cls-2" d="M2.21,8.469A2.045,2.045,0,0,1,.468,7.624,3.173,3.173,0,0,1,0,5.683V2.792A3.2,3.2,0,0,1,.468.847,2.042,2.042,0,0,1,2.21,0,2.044,2.044,0,0,1,3.955.847a3.22,3.22,0,0,1,.464,1.945V5.683a3.243,3.243,0,0,1-.464,1.941A2.046,2.046,0,0,1,2.21,8.469Zm0-7.122c-.48,0-.714.374-.714,1.144V5.964c0,.771.233,1.146.714,1.146s.714-.375.714-1.146V2.491C2.923,1.721,2.69,1.347,2.21,1.347Z" transform="translate(9.06 2.723)"/>
  </g>
</svg>
